<?xml version="1.0" standalone="no"?>
<!DOCTYPE svg PUBLIC "-//W3C//DTD SVG 1.1//EN" "http://www.w3.org/Graphics/SVG/1.1/DTD/svg11.dtd" >
<!--
2013-9-30: Created.
-->
<svg>
<metadata>
Created by iconfont
</metadata>
<defs>

<font id="iconfont" horiz-adv-x="1024" >
  <font-face
    font-family="iconfont"
    font-weight="500"
    font-stretch="normal"
    units-per-em="1024"
    ascent="896"
    descent="-128"
  />
    <missing-glyph />
    
    <glyph glyph-name="x" unicode="x" horiz-adv-x="1001"
d="M281 543q-27 -1 -53 -1h-83q-18 0 -36.5 -6t-32.5 -18.5t-23 -32t-9 -45.5v-76h912v41q0 16 -0.5 30t-0.5 18q0 13 -5 29t-17 29.5t-31.5 22.5t-49.5 9h-133v-97h-438v97zM955 310v-52q0 -23 0.5 -52t0.5 -58t-10.5 -47.5t-26 -30t-33 -16t-31.5 -4.5q-14 -1 -29.5 -0.5
t-29.5 0.5h-32l-45 128h-439l-44 -128h-29h-34q-20 0 -45 1q-25 0 -41 9.5t-25.5 23t-13.5 29.5t-4 30v167h911zM163 247q-12 0 -21 -8.5t-9 -21.5t9 -21.5t21 -8.5q13 0 22 8.5t9 21.5t-9 21.5t-22 8.5zM316 123q-8 -26 -14 -48q-5 -19 -10.5 -37t-7.5 -25t-3 -15t1 -14.5
t9.5 -10.5t21.5 -4h37h67h81h80h64h36q23 0 34 12t2 38q-5 13 -9.5 30.5t-9.5 34.5q-5 19 -11 39h-368zM336 498v228q0 11 2.5 23t10 21.5t20.5 15.5t34 6h188q31 0 51.5 -14.5t20.5 -52.5v-227h-327z" />
    

    
    <glyph glyph-name="bbggerenhuli" unicode="&#59024;" d="M483.799 119.060h-168.8c-15.535 0-28.133-12.598-28.133-28.132 0-15.535 12.598-28.133 28.133-28.133h168.8c15.535 0 28.132 12.598 28.132 28.133s-12.597 28.132-28.132 28.132zM849.532 231.593v28.132c0 15.535-12.598 28.133-28.132 28.133-15.535 0-28.132-12.598-28.132-28.133v-28.132c-31.076 0-56.267-25.191-56.267-56.267v-281.332c0-31.076 25.191-56.267 56.267-56.267h56.267c31.076 0 56.267 25.191 56.267 56.267v281.332c-0.001 31.076-25.192 56.267-56.268 56.267zM483.799 6.528h-168.8c-15.535 0-28.133-12.598-28.133-28.132 0-15.535 12.598-28.132 28.133-28.132h168.8c15.535 0 28.132 12.598 28.132 28.132s-12.597 28.132-28.132 28.132zM511.933 489.176v80.017c0 31.076-25.191 56.267-56.267 56.267v56.267h28.132c15.535 0 28.133 12.598 28.133 28.132 0 15.541-12.598 28.132-28.133 28.132h-168.8c-6.864 0-12.93-2.751-17.813-6.836-39.599-9.151-75.697-27.379-105.974-52.621-8.985-4.697-15.124-14.098-15.124-24.942 0-15.535 12.598-28.132 28.132-28.132 6.001 0 11.558 1.884 16.125 5.086l0.124-0.151c32.837 29.68 75.481 48.299 122.661 50.482v-55.417c-31.076 0-56.267-25.191-56.267-56.267v-80.017c-99.275-43.449-168.799-142.282-168.799-257.584v-337.599c0-31.076 25.191-56.267 56.267-56.267h450.133c31.076 0 56.267 25.191 56.267 56.267v337.599c0 115.301-69.523 214.134-168.8 257.583zM568.199-49.739c0-31.076-25.191-56.267-56.267-56.267h-225.066c-31.076 0-56.267 25.191-56.267 56.267v168.8c0 31.076 25.191 56.267 56.267 56.267h225.066c31.076 0 56.267-25.191 56.267-56.267v-168.8z"  horiz-adv-x="1024" />

    
    <glyph glyph-name="jujia" unicode="&#59139;" d="M206.08 340l645.44 0-134.016 369.024c0 0-22.08 67.008-62.784 72.64L402.816 781.664c0 0-33.92 0-60.224-65.024L206.08 340zM206.08 293.408l645.44 0 0-37.376L691.2 256.032l0-158.656-38.912 0L652.288 255.264 564.032 255.264l0-368.128 133.184 0c0 0 66.112-4.032 69.888-74.112L288.64-186.976c0 0 1.984 66.752 66.688 73.536l134.912-0.256L490.24 255.264 206.08 255.648 206.08 293.408z"  horiz-adv-x="1024" />

    
    <glyph glyph-name="muying" unicode="&#58939;" d="M185.930916 7.892859c-47.738661 0-86.412455-38.674999-86.412455-86.381147 0-47.708557 38.674999-86.443763 86.412455-86.443763 47.708557 0 86.382352 38.735206 86.382352 86.443763C272.313268-30.78214 233.639474 7.892859 185.930916 7.892859zM667.156368 7.892859c-47.738661 0-86.41366-38.674999-86.41366-86.381147 0-47.708557 38.674999-86.443763 86.41366-86.443763 47.707353 0 86.382352 38.735206 86.382352 86.443763C753.53872-30.78214 714.863721 7.892859 667.156368 7.892859zM312.718635 757.514467c-14.943544 17.015892-31.310396 13.210767-38.271607-12.128233-7.672865-28.062795-32.609678-36.199259-55.317603-17.975602-22.833157 18.192349-40.343955 9.25151-39.045878-19.86251 1.360693-29.082713-19.925126-44.489855-47.151034-34.311147-27.288524 10.364148-41.210946-3.558273-30.938313-30.845593 10.271428-27.225908-5.135714-48.45152-34.218427-47.12093-29.082713 1.267974-38.05486-16.274133-19.86251-39.044674 18.253761-22.740437 10.085989-47.645941-18.00691-55.350115-28.092899-7.734277-31.186369-27.1946-6.805875-43.25319 24.256466-15.933358 24.256466-42.262171 0-58.226837-22.585101-14.912236-20.605473-32.331518 2.042244-40.994198l427.515394 0L312.718635 757.514467zM944.647496 551.800515c-33.47426 0-60.514729-22.894568-69.270128-53.58603-142.444121-52.318056-139.875662-202.061755-139.875662-202.061755L27.492026 296.15273c9.71511-178.054549 182.354581-320.003763 394.472221-320.003763 211.127826 0 382.964127 140.587316 394.226574 317.372688l0.680347-0.031308c-2.351712 81.834264 58.163017 122.055396 76.851478 132.543572 13.210767-12.80858 31.063545-20.852324 50.923647-20.852324 40.533007 0 73.326921 32.795118 73.326921 73.294408S985.180503 551.800515 944.647496 551.800515z"  horiz-adv-x="1024" />

    
    <glyph glyph-name="zhubaopeishi" unicode="&#58927;" d="M329.376171 370.91512l375.37225 1.855254L524.225951-125.955298 329.376171 370.91512 329.376171 370.91512zM372.393917 551.683183l285.957801-2.785439 50.610678-121.43677L337.807191 430.24232 372.393917 551.683183 372.393917 551.683183zM290.56626 433.945665 64.497455 537.776452l121.469516 99.190093 145.087423-82.505086L290.56626 433.945665 290.56626 433.945665zM64.497455 477.522136l214.259852-104.752786L509.04725-122.24479 64.497455 477.522136 64.497455 477.522136zM758.726799 373.700559 959.501522 487.711196 536.882202-119.469584 758.726799 373.700559 758.726799 373.700559zM754.517941 434.87892l-56.524364 127.926578 129.060401 78.790484 111.353111-102.900601L754.517941 434.87892 754.517941 434.87892zM368.177895 612.855404l-48.926316 13.906731-91.958388 56.545854 107.98234 42.647309 352.59243 0 107.138112-49.127907-102.912881-54.697763-34.588773-9.274224L368.177895 612.855404 368.177895 612.855404 368.177895 612.855404zM368.177895 612.855404"  horiz-adv-x="1024" />

    
    <glyph glyph-name="quxiao" unicode="&#58912;" d="M512-103.2c-222.6688 0-403.2 180.5824-403.2 403.2S289.3312 703.2 512 703.2 915.2 522.6176 915.2 300 734.6688-103.2 512-103.2L512-103.2 512-103.2zM512 760.8C257.5104 760.8 51.2 554.592 51.2 300s206.2848-460.8 460.8-460.8c254.4896 0 460.8 206.208 460.8 460.8S766.4896 760.8 512 760.8L512 760.8 512 760.8zM676.6592 464.7616c-11.3408 11.2128-29.696 11.2128-41.0624 0l-123.776-123.8528-122.0096 122.112c-11.264 11.2384-29.5168 11.2384-40.704 0-11.264-11.2128-11.264-29.6448 0-40.9088l121.984-121.8048-122.8544-123.008c-11.3152-11.2128-11.3152-29.6448 0-41.1648 11.3408-11.2128 29.7216-11.2128 41.0624 0l122.8544 122.9824 122.0096-122.112c11.2384-11.2384 29.5168-11.2384 40.7552 0 11.2384 11.2128 11.2384 29.6448 0 40.9088l-122.0352 121.8048 123.7504 123.8528C687.9744 435.0656 687.9744 453.1904 676.6592 464.7616L676.6592 464.7616 676.6592 464.7616zM676.6592 464.7616"  horiz-adv-x="1024" />

    
    <glyph glyph-name="icon" unicode="&#58893;" d="M974.91763 401.012466 527.204795 848.671065 79.481727 401.012466l43.660382-47.285956 84.423785 84.337827 0-484.833267 639.455857 0L847.021751 437.853535l84.407412-84.127026L974.91763 401.012466zM783.047718 17.272641 271.35164 17.272641l0 479.930607 255.853156 256.890788 255.842922-255.741615L783.047718 17.272641z"  horiz-adv-x="1024" />

    
    <glyph glyph-name="0023" unicode="&#58969;" d="M951.426 203.561c-28.37 0-51.476 23.672-51.476 53.046 0 29.214 23.104 52.886 51.476 52.886 28.373 0 51.476-23.672 51.476-52.886 0-29.374-23.103-53.046-51.476-53.046M686.641 203.561c-28.373 0-51.476 23.672-51.476 53.046 0 29.214 23.103 52.886 51.476 52.886 28.37 0 51.473-23.672 51.473-52.886-0.001-29.374-23.103-53.046-51.473-53.046M1187.84 128.204c0 171.387-149.962 311.71-340.025 323.808-8.892 0.493-17.802 0.836-26.711 0.836-202.599 0-366.753-145.372-366.753-324.644 0-27.032 3.802-53.212 10.89-78.227 39.423-141.521 183.778-246.436 355.861-246.436 58.563 0 113.824 12.099 162.817 33.753l82.327-57.243c0 0 21.944-15.606 19.802 14.443l-23.265 89.635c76.723 59.424 125.057 146.717 125.057 244.075M259.518 493.306c-28.386 0-51.476 23.655-51.476 52.866 0 29.377 23.090 53.047 51.476 53.047 28.533 0 51.476-23.672 51.476-53.047 0-29.211-22.943-52.866-51.476-52.866M583.69 599.219c28.389 0 51.476-23.672 51.476-53.047 0-29.211-23.087-52.866-51.476-52.866-28.533 0-51.476 23.655-51.476 52.866 0 29.377 22.943 53.047 51.476 53.047M821.103 479.88c7.911 0 15.66-0.344 23.426-0.688-30.194 181.469-206.721 320.808-420.034 320.808-234.433 0-424.496-168.388-424.496-375.857 0-115.667 59.064-219.059 151.783-288.055l-31.353-120.358c0 0-10.714-39.95 29.871-21.999l116.965 81.259c48.673-17.293 101.631-26.868 157.229-26.868 4.785 0 9.393 0.344 14.017 0.344-6.765 25.688-10.392 52.376-10.392 79.735 0.001 193.88 176.353 351.678 392.985 351.678z"  horiz-adv-x="1188" />

    
    <glyph glyph-name="xiangjixian" unicode="&#58923;" d="M965.406118-54.994824 58.925176-54.994824c-32.481882 0-58.925176 26.443294-58.925176 58.925176L0 647.228235c0 32.481882 26.428235 58.925176 58.925176 58.925176l206.320941 0 73.306353 116.856471 337.799529 0 73.291294-116.856471 215.747765 0c32.481882 0 58.925176-26.428235 58.925176-58.925176l0-643.297882C1024.331294-28.551529 997.888-54.994824 965.406118-54.994824zM58.925176 676.035765c-15.887059 0-28.807529-12.920471-28.807529-28.807529l0-643.297882c0-15.887059 12.920471-28.807529 28.807529-28.807529l906.465882 0c15.887059 0 28.807529 12.920471 28.807529 28.807529L994.198588 647.228235c0 15.887059-12.920471 28.807529-28.807529 28.807529L732.988235 676.035765l-73.291294 116.856471L355.222588 792.892235l-73.306353-116.856471L58.925176 676.035765zM512.165647 123.632941c-129.234824 0-234.360471 105.125647-234.360471 234.360471 0 129.234824 105.140706 234.360471 234.360471 234.360471 129.234824 0 234.360471-105.140706 234.360471-234.360471C746.526118 228.758588 641.400471 123.632941 512.165647 123.632941zM512.165647 562.251294c-112.624941 0-204.242824-91.617882-204.242824-204.242824 0-112.624941 91.617882-204.242824 204.242824-204.242824 112.624941 0 204.242824 91.632941 204.242824 204.242824C716.408471 470.618353 624.790588 562.251294 512.165647 562.251294z"  horiz-adv-x="1025" />

    
    <glyph glyph-name="shoucang" unicode="&#58895;" d="M327.728136 91.698724l150.60509 60.966537 33.721009 13.627369 33.721009-13.627369 150.609183-60.914348-4.484128 166.562527-0.907673 32.985252 20.663622 25.711592 96.563266 120.353089L652.842749 484.425224l-30.030967 9.081843-17.825994 25.716708-92.931552 134.033669-92.871177-134.033669-17.825994-25.716708-30.033014-9.081843-155.490354-47.120181 96.566336-120.29476 20.663622-25.711592-0.907673-32.985252L327.728136 91.698724M789.940197-43.129031 512.054235 69.272969 234.17339-43.129031l8.115841 303.886125L62.389956 484.824313l282.879696 85.667102L512.054235 811.130054l166.843936-240.638639 282.711873-85.667102L781.766027 260.756071 789.940197-43.129031 789.940197-43.129031 789.940197-43.129031z"  horiz-adv-x="1024" />

    
    <glyph glyph-name="2" unicode="&#58965;" d="M496 341.312c-144.064 0-261.312 117.248-261.312 261.312S351.936 863.936 496 863.936c144.064 0 261.312-117.248 261.312-261.312S640.064 341.312 496 341.312zM496 831.936c-126.464 0-229.312-102.848-229.312-229.312S369.536 373.312 496 373.312s229.312 102.848 229.312 229.312S622.464 831.936 496 831.936zM880-97.984l-768 0c-8.832 0-16 7.168-16 16l0 92.736c0 179.328 150.72 325.248 336 325.248l128 0c185.28 0 336-145.92 336-325.248l0-92.736C896-90.816 888.832-97.984 880-97.984zM128-65.984l736 0 0 76.736c0 161.664-136.384 293.248-304 293.248l-128 0C264.384 304 128 172.416 128 10.752L128-65.984z"  horiz-adv-x="1024" />

    
    <glyph glyph-name="shoucang-copy" unicode="&#58896;" d="M511.661 861.901c-263.394 0-476.93-213.247-476.93-476.309 0-263.060 213.536-476.315 476.93-476.315 263.402 0 476.944 213.251 476.944 476.315-0.001 263.061-213.541 476.309-476.944 476.309zM511.661-47.11c-239.284 0-433.266 193.735-433.266 432.701 0 238.98 193.983 432.703 433.266 432.703 239.281 0 433.266-193.723 433.266-432.703-0.002-238.962-193.985-432.701-433.266-432.701zM855.34 480.769c-5.874 16.979-20.989 29.41-39.179 32.109l-177.033 26.317-76.972 159.679c-8.077 16.771-25.41 27.501-44.474 27.501-19.039 0-36.381-10.73-44.479-27.501l-76.947-159.677-177.053-26.318c-18.186-2.7-33.303-15.132-39.153-32.109-5.861-17.013-1.431-35.756 11.413-48.559l129.735-129.488-30.092-179.605c-3.053-18.071 4.801-36.231 20.169-46.825 8.448-5.786 18.37-8.733 28.3-8.733 8.156 0 16.336 1.993 23.776 5.955l154.332 83.061 154.354-83.061c7.44-3.961 15.617-5.955 23.759-5.955 9.946 0 19.845 2.947 28.318 8.733 15.361 10.593 23.193 28.751 20.158 46.825l-30.105 179.605 129.755 129.488c12.846 12.802 17.252 31.545 11.415 48.558v0zM679.020 336.114c-10.882-10.852-15.825-26.106-13.313-41.092l30.091-179.625-154.336 83.033c-7.414 3.99-15.599 5.974-23.776 5.974-8.158 0-16.345-1.984-23.751-5.974l-154.355-83.031 30.102 179.627c2.51 14.985-2.426 30.241-13.309 41.090l-129.726 129.463 177.027 26.356c16.172 2.407 30.107 12.516 37.066 26.943l76.947 159.663 76.971-159.663c6.96-14.426 20.868-24.534 37.047-26.943l177.051-26.356-129.733-129.465z"  horiz-adv-x="1024" />

    
    <glyph glyph-name="dianpu" unicode="&#58915;" d="M952.786158 543.199059c0 0.516042-0.172014 0.860071-0.172014 1.376113-0.344028 1.892155-0.860071 3.612296-1.548127 5.332437L875.895851 736.714934c-13.073072 38.703175-50.22812 62.441122-93.919704 62.613136L255.440954 799.32807c-44.207626 0-78.610449-23.565933-90.995464-60.720981L83.770872 548.015454c-0.344028-1.204099-0.860071-2.752226-1.204099-4.472367-5.84848-18.061482-8.77272-36.466991-8.77272-55.044515 0-65.193348 35.778935-124.71023 93.231648-155.328742 0 0 0 0 0 0s0 0 0 0l0 0c0 0 0 0 0 0 23.565933-12.55703 51.432219-18.921552 82.738787-18.921552 52.464304 0.172014 101.144297 23.221905 134.34302 62.78515 33.026709-39.219217 81.19066-62.097094 133.654964-62.441122 51.948261 0.344028 100.112212 23.393919 132.966907 62.613136 33.198723-39.563245 81.878717-62.441122 134.687049-62.441122 31.994625 0.172014 60.204939 6.880564 84.1149 19.953637 56.592642 30.96254 91.683521 90.135394 91.683521 154.640685C961.386864 507.764153 958.29061 526.341676 952.786158 543.199059zM839.084831 390.622543c-14.449185-7.912649-32.510667-12.040988-53.668402-12.040988-39.047203 0-74.48211 19.781623-95.295817 53.324374-1.548127 3.096254-3.956325 8.428691-8.600706 13.417101-5.332437 5.84848-14.793214 12.901058-30.618512 12.901058-12.729044 0-24.25399-5.160423-30.790526-13.245087-4.300353-4.816395-6.70855-9.63279-8.428691-13.245087-20.469679-33.198723-55.732572-53.15236-93.919704-53.324374-38.703175 0.172014-73.966068 20.125651-94.607761 53.496388-1.376113 2.92424-3.78431 7.912649-7.568621 12.040988-14.965228 17.889467-48.679993 17.029397-61.753066 1.376113-4.816395-5.332437-7.396607-10.664875-8.944734-14.277171-20.641693-33.198723-56.248614-52.980346-94.951789-53.15236-20.641693 0-38.359147 3.956325-52.636318 11.524945l0 0c0 0 0 0 0 0-36.639006 19.437594-59.344868 57.452713-59.344868 98.908114 0 12.213002 2.064169 24.598018 6.192508 36.639006 0.344028 0.860071 0.516042 1.892155 0.688056 2.752226l79.470519 187.839409c1.548127 4.816395 6.536536 19.437594 31.306568 19.437594l526.707206 0c10.148833-0.688056 27.694272-2.408198 33.88678-20.641693l74.310096-185.259197c0.344028-1.376113 0.688056-2.580212 1.032085-3.612296 4.128339-12.040988 6.192508-24.25399 6.192508-36.466991C897.397615 448.075256 875.03578 410.404166 839.084831 390.622543zM862.994793 288.102133c-17.717453 0-31.994625-14.277171-31.994625-31.994625l0-174.594322c0-9.976818-8.084663-18.061482-18.061482-18.061482l-602.049387-0.344028c-9.976818 0-18.061482 8.084663-18.061482 17.889467l-0.172014 171.498068c0 17.717453-14.449185 31.994625-31.994625 31.994625 0 0 0 0 0 0-17.717453 0-31.994625-14.449185-31.994625-31.994625l0.172014-171.498068c0-45.067697 36.81102-81.878717 82.050731-81.878717l602.221401 0.344028c45.067697 0.172014 81.878717 36.81102 81.878717 82.050731l0 174.594322C894.989417 273.652948 880.712246 288.102133 862.994793 288.102133zM768.043004 512.064505 255.956996 512.064505c-17.717453 0-31.994625 14.277171-31.994625 31.994625 0 17.717453 14.277171 31.994625 31.994625 31.994625l511.913993 0c17.717453 0 31.994625-14.277171 31.994625-31.994625C800.037628 526.341676 785.588443 512.064505 768.043004 512.064505z"  horiz-adv-x="1024" />

    
    <glyph glyph-name="sina" unicode="&#59165;" d="M892.108 257.238c0-26.388-7.038-53.451-21.097-81.19-14.07-27.736-34.774-54.309-62.146-79.713-27.358-25.426-59.391-48.225-96.067-68.389-36.68-20.169-79.629-36.271-128.849-48.304-49.224-12.022-100.622-18.041-154.22-18.041-53.59 0-105.853 6.502-156.783 19.498-50.936 12.998-96.632 31.033-137.114 54.118-40.478 23.079-73.074 52.378-97.777 87.88C13.349 158.595 1 197.297 1 239.196c0 44.611 13.201 92.145 39.625 142.578 26.413 50.43 63.942 100.482 112.602 150.15 64.225 65.561 129.131 111.352 194.702 137.339 65.555 25.989 112.397 24.639 140.531-4.075 24.702-24.823 28.508-65.379 11.402-121.626-1.526-5.439-1.711-9.313-0.57-11.639 1.141-2.329 3.037-3.692 5.703-4.073 2.65-0.389 5.413-0.297 8.264 0.292 2.851 0.575 5.419 1.251 7.7 2.031l3.422 1.166c52.82 22.896 99.573 34.336 140.248 34.336 40.667 0 69.741-11.837 87.231-35.502 17.104-24.438 17.104-58.976 0-103.585-0.771-5.038-1.624-8.927-2.563-11.637-0.955-2.716-0.104-5.146 2.563-7.282 2.652-2.129 4.938-3.581 6.842-4.36 1.896-0.78 5.132-1.946 9.693-3.491 21.66-6.983 41.232-16.101 58.722-27.354 17.478-11.256 32.682-27.062 45.605-47.431C885.642 304.67 892.108 282.058 892.108 257.238L892.108 257.238 892.108 257.238M716.509 259.566c-3.421 37.243-20.335 70.215-50.74 98.928-30.416 28.714-70.039 49.854-118.87 63.441-48.85 13.581-101.013 17.646-156.505 12.217-84.761-8.933-154.983-36.37-210.661-82.354-55.688-45.967-80.874-97.277-75.542-153.918 3.42-37.249 20.326-70.224 50.746-98.937 30.398-28.717 70.024-49.858 118.868-63.431 48.831-13.592 100.993-17.665 156.502-12.223 84.75 8.92 154.973 36.366 210.66 82.351C696.646 151.611 721.825 202.916 716.509 259.566L716.509 259.566 716.509 259.566M538.63 166.455c-17.105-39.577-47.135-68.673-90.076-87.295-42.963-18.627-85.522-20.952-127.71-6.985-40.678 13.183-68.698 37.73-84.093 73.611-15.395 35.892-14.167 72.259 3.706 109.123 17.863 36.082 46.65 63.044 86.377 80.891 39.708 17.84 79.716 21.533 120.01 11.056 42.188-11.256 72.305-34.435 90.364-69.546C555.253 242.197 555.735 205.239 538.63 166.455L538.63 166.455 538.63 166.455M385.838 158.306c7.983 13.183 10.063 26.568 6.272 40.151-3.807 13.583-12.36 23.277-25.657 29.105-12.924 5.427-26.792 5.609-41.619 0.575-14.824-5.042-26.228-13.966-34.211-26.763-8.368-13.192-10.833-26.486-7.407-39.861 3.415-13.398 11.583-23.193 24.511-29.393 12.916-6.209 27.082-6.696 42.476-1.458C365.595 135.898 377.471 145.113 385.838 158.306L385.838 158.306 385.838 158.306M439.431 228.721c3.033 5.039 3.701 10.181 1.99 15.43-1.71 5.228-5.043 8.814-9.973 10.76-5.333 1.942-10.747 1.841-16.254-0.289-5.512-2.139-9.597-5.729-12.25-10.769-6.473-12.029-3.991-20.755 7.411-26.19 5.311-1.949 10.834-1.847 16.53 0.289C432.586 220.086 436.764 223.677 439.431 228.721L439.431 228.721 439.431 228.721M953.11 715.243c33.07-37.251 54.45-80.413 64.143-129.493 9.688-49.078 7.13-95.923-7.694-140.539-3.422-10.475-9.887-18.242-19.387-23.281-9.508-5.044-19.386-5.818-29.648-2.328-10.264 3.492-17.871 10.087-22.803 19.789-4.946 9.692-5.901 19.79-2.851 30.264 10.633 31.802 12.54 65.179 5.702 100.091-6.841 34.922-22.052 65.566-45.615 91.954-23.571 26.769-51.69 45.294-84.379 55.57-32.691 10.282-65.561 11.937-98.627 4.952-10.648-2.323-20.525-0.487-29.647 5.522-9.124 6.019-14.826 14.458-17.105 25.321-2.281 10.858-0.482 20.852 5.42 29.97 5.886 9.114 14.149 14.84 24.801 17.168 46.748 10.088 93.116 7.852 139.111-6.691C880.509 778.961 920.047 752.864 953.11 715.243L953.11 715.243 953.11 715.243M792.331 658.499c22.427-7.178 41.624-19.884 57.589-38.12 15.959-18.24 26.31-39.283 31.072-63.136 4.747-23.871 3.509-46.658-3.709-68.384-3.044-8.931-8.649-15.521-16.813-19.789-8.182-4.274-16.632-5.043-25.374-2.324-8.748 3.104-15.205 8.82-19.386 17.167-4.187 8.339-4.941 16.964-2.277 25.896 7.598 24.441 3.037 45.975-13.686 64.597-16.728 18.62-37.056 25.404-61.003 20.372-9.121-1.946-17.675-0.386-25.656 4.657-7.983 5.03-12.739 12.219-14.253 21.532-1.902 9.308-0.383 17.937 4.56 25.901 4.937 7.948 11.976 12.891 21.097 14.833C747.297 666.734 769.907 665.672 792.331 658.499L792.331 658.499 792.331 658.499M792.331 658.499 792.331 658.499z"  horiz-adv-x="1024" />

    
    <glyph glyph-name="shezhi" unicode="&#58966;" d="M512 198.4c102.4 0 182.4 83.2 182.4 185.6 0 102.4-83.2 185.6-182.4 185.6-102.4 0-182.4-83.2-182.4-185.6C329.6 281.6 412.8 198.4 512 198.4L512 198.4zM512 249.6c-73.6 0-134.4 60.8-134.4 134.4 0 73.6 60.8 134.4 134.4 134.4 73.6 0 134.4-60.8 134.4-134.4C646.4 310.4 585.6 249.6 512 249.6L512 249.6zM249.015232 52.821408c35.2-28.8 73.6-51.2 112-67.2 41.6 38.4 96 60.8 150.4 60.8 57.6 0 108.8-22.4 150.4-60.8 41.6 16 80 38.4 112 67.2-12.8 54.4-3.2 112 22.4 163.2 28.8 48 73.6 86.4 128 102.4 3.2 22.4 6.4 44.8 6.4 67.2 0 22.4-3.2 44.8-6.4 67.2-54.4 16-99.2 54.4-128 102.4-28.8 48-35.2 108.8-22.4 163.2-35.2 28.8-73.6 51.2-112 67.2-41.6-38.4-92.8-60.8-150.4-60.8-54.4 0-108.8 22.4-150.4 60.8-41.6-16-80-38.4-112-67.2 12.8-54.4 3.2-112-22.4-163.2-28.8-48-73.6-86.4-128-102.4-3.2-22.4-6.4-44.8-6.4-67.2 0-22.4 3.2-44.8 6.4-67.2 54.4-16 99.2-54.4 128-102.4C252.215232 164.821408 261.815232 107.221408 249.015232 52.821408M361.015232-62.378592c-54.4 19.2-105.6 48-150.4 89.6-6.4 6.4-9.6 16-6.4 22.4 16 48 9.6 99.2-16 140.8-25.6 44.8-64 73.6-112 83.2-9.6 3.2-16 9.6-16 19.2-6.4 28.8-9.6 60.8-9.6 89.6 0 28.8 3.2 57.6 9.6 89.6 3.2 9.6 9.6 16 16 19.2 48 12.8 89.6 41.6 112 83.2 25.6 44.8 28.8 92.8 16 140.8-3.2 9.6 0 19.2 6.4 22.4 44.8 38.4 96 67.2 150.4 89.6 9.6 3.2 16 0 22.4-6.4 35.2-35.2 80-57.6 128-57.6 48 0 96 19.2 128 57.6 6.4 6.4 16 9.6 22.4 6.4 54.4-19.2 105.6-48 150.4-89.6 6.4-6.4 9.6-16 6.4-22.4-16-48-9.6-99.2 16-140.8 25.6-44.8 64-73.6 112-83.2 9.6-3.2 16-9.6 16-19.2 6.4-28.8 9.6-60.8 9.6-89.6 0-28.8-3.2-57.6-9.6-89.6-3.2-9.6-9.6-16-16-19.2-48-12.8-89.6-41.6-112-83.2-25.6-44.8-28.8-92.8-16-140.8 3.2-9.6 0-19.2-6.4-22.4-44.8-38.4-96-67.2-150.4-89.6-9.6-3.2-16 0-22.4 6.4-35.2 35.2-80 57.6-128 57.6-48 0-96-19.2-128-57.6-3.2-3.2-9.6-6.4-16-6.4C364.215232-62.378592 361.015232-62.378592 361.015232-62.378592z"  horiz-adv-x="1024" />

    
    <glyph glyph-name="biaoqing" unicode="&#58937;" d="M511.620865-127.202845c-136.666499 0-265.147581 53.211869-361.767032 149.830297-96.620475 96.620475-149.832344 225.101556-149.832344 361.771125 0 136.670593 53.211869 265.149627 149.832344 361.769079C246.473285 842.787108 374.954366 895.998977 511.620865 895.998977c136.671616 0 265.149627-53.211869 361.772149-149.831321 96.623545-96.619451 149.835414-225.099509 149.835414-361.769079 0-136.671616-53.211869-265.150651-149.835414-361.771125C776.770493-73.990976 648.291458-127.202845 511.620865-127.202845zM511.620865 847.276347c-123.653128 0-239.895479-48.144462-327.314394-135.56133C96.888581 624.296103 48.744119 508.053752 48.744119 384.398577c0-123.654151 48.144462-239.899572 135.562353-327.31644 87.418915-87.418915 203.661266-135.55826 327.314394-135.55826 123.657221 0 239.902642 48.139345 327.320533 135.55826 87.417891 87.416868 135.560307 203.661266 135.560307 327.31644 0 123.655174-48.142415 239.898549-135.560307 327.31644C751.523508 799.131885 635.278086 847.276347 511.620865 847.276347zM511.620865 116.316157c-120.048023 0-226.30394 80.727522-258.392743 196.310865-3.598964 12.965277 3.992937 26.392064 16.958213 29.992051 12.956067 3.597941 26.392064-3.992937 29.991028-16.958213 26.254941-94.569771 113.204158-160.619004 211.443502-160.619004 98.328371 0 185.278612 66.120864 211.443502 160.790919 3.584638 12.96937 17.005285 20.577644 29.970562 16.991982 12.970393-3.583615 20.57662-17.004262 16.990959-29.971585C738.042485 197.134754 631.784522 116.316157 511.620865 116.316157zM428.569417 517.281918c0-24.026182-19.475544-43.503773-43.50275-43.503773-24.123396 0-43.503773 19.477591-43.503773 43.503773 0 24.026182 19.380377 43.454654 43.503773 43.454654C409.093873 560.736572 428.569417 541.309123 428.569417 517.281918zM681.684976 517.281918c0-24.026182-19.480661-43.503773-43.504796-43.503773-24.125443 0-43.503773 19.477591-43.503773 43.503773 0 24.026182 19.37833 43.454654 43.503773 43.454654C662.204315 560.736572 681.684976 541.309123 681.684976 517.281918z"  horiz-adv-x="1024" />

    
    <glyph glyph-name="sousuo" unicode="&#58940;" d="M1007.483871-61.935484l-303.896774 303.896774c132.129032 155.251613 125.522581 389.780645-23.122581 535.122581-155.251613 155.251613-406.296774 155.251613-561.548387 0-155.251613-155.251613-155.251613-406.296774 0-561.548387 145.341935-145.341935 379.870968-155.251613 535.122581-23.122581l303.896774-303.896774c13.212903-13.212903 33.032258-13.212903 46.245161 0C1020.696774-98.270968 1020.696774-75.148387 1007.483871-61.935484zM168.464516 265.083871C39.63871 393.909677 39.63871 602.012903 168.464516 730.83871 297.290323 859.664516 505.393548 859.664516 634.219355 730.83871c128.825806-128.825806 128.825806-336.929032 0-465.754839C505.393548 136.258065 297.290323 136.258065 168.464516 265.083871z"  horiz-adv-x="1024" />

    
    <glyph glyph-name="weibiaoti11" unicode="&#58890;" d="M512.983-22.596l137.257 167.349h236.039c23.552 0 42.721 19.169 42.721 42.653l0 512.061c0 23.484-19.169 42.653-42.721 42.653l-767.986 0c-23.484 0-42.653-19.169-42.653-42.653v-512.061c0-23.484 19.169-42.653 42.653-42.653h257.434l12.759-15.633 124.498-151.716M512.983-89.914l-157.471 192.014-237.22 0c-47.104 0-85.313 38.209-85.313 85.313l0 512.055c0 47.104 38.209 85.313 85.313 85.313h767.993c47.172 0 85.374-38.209 85.374-85.313v-512.061c0-47.104-38.209-85.313-85.374-85.313h-215.832l-157.471-192.007z"  horiz-adv-x="1024" />

    
    <glyph glyph-name="baojianshipin" unicode="&#59534;" d="M807.524333 713.139203c0-38.475467-32.233437-69.68562-72.039173-69.68562L288.51484 643.453582c-39.805736 0-72.039173 31.210153-72.039173 69.68562l0 47.889677c0 38.475467 32.233437 69.68562 72.039173 69.68562l447.072649 0c39.805736 0 72.039173-31.210153 72.039173-69.68562L807.524333 713.139203 807.524333 713.139203 807.524333 713.139203zM419.188168 463.662636l388.438493 0 0 28.037973c0 38.475467-32.233437 69.68562-72.039173 69.68562L288.51484 561.38623c-39.805736 0-72.039173-31.210153-72.039173-69.68562l0-484.729489c0-38.475467 32.233437-69.68562 72.039173-69.68562l447.072649 0c39.805736 0 72.039173 31.210153 72.039173 69.68562l0 28.037973L419.188168 35.009094 419.188168 463.662636 419.188168 463.662636zM451.319277 67.24253l356.205056 0 0 364.288998L451.319277 431.531528 451.319277 67.24253 451.319277 67.24253zM512 278.243629l86.569801 0 0 86.569801 57.713201 0 0-86.569801L742.955131 278.243629l0-57.713201-86.569801 0 0-86.569801-57.713201 0 0 86.569801-86.569801 0L512.102328 278.243629 512 278.243629z"  horiz-adv-x="1024" />

    
    <glyph glyph-name="dingdanliang" unicode="&#58956;" d="M511.998 896c-282.765 0-511.994-229.231-511.994-511.999 0-282.773 229.228-512.001 511.994-512.001 282.769 0 511.995 229.228 511.995 512.001 0.001 282.768-229.226 511.999-511.995 511.999zM511.998-91.597c-262.66 0-475.59 212.931-475.59 475.598 0 262.663 212.93 475.595 475.59 475.595 262.663 0 475.591-212.932 475.591-475.595 0.001-262.666-212.926-475.598-475.591-475.598zM771.009 557.24c-1.9 24.891-12.81 45.123-32.269 60.871-24.349 19.684-53.084 19.37-82.276 17.898v-27.787c1.405-0.067 2.672-0.181 3.94-0.181 7.826-0.024 15.702 0.385 23.486-0.136 6.745-0.452 13.714-1.086 20.094-3.168 24.438-8.035 38.786-29.010 38.786-56.163 0.044-118.119 0.091-236.238-0.138-354.356-0.042-8.172-1.177-16.722-3.753-24.439-10.229-30.48-36.795-49.126-69.833-49.194-104.721-0.158-209.399-0.203-314.076 0.045-31.092 0.067-53.629 14.664-67.297 42.427-5.158 10.41-6.471 21.655-6.471 33.152l-0 347.070c0 3.824 0.135 7.673 0.317 11.496 1.403 26.926 22.582 49.713 49.465 52.452 10.59 1.063 21.316 0.588 31.997 0.791 1.493 0.024 2.941 0 4.57 0v28.942c-14.481-0.612-28.738-0.792-42.903-1.946-10.182-0.838-19.776-4.593-28.556-9.776-29.009-17.152-43.4-42.97-43.445-76.188-0.227-118.369-0.135-236.739-0.091-355.105 0-14.325 2.264-28.354 8.464-41.364 18.782-39.282 50.326-60.167 94.043-60.395 104.723-0.522 209.4-0.204 314.077-0.135 25.391 0.021 48.063 7.897 67.251 24.574 23.853 20.75 35.119 47.247 35.119 78.632l0 342.842c-0.001 6.379-0.045 12.783-0.497 19.141zM498.656 623.156h-53.041v-26.113l133.009 0v26.204h-53.087v26.746h66.21v26.113l-159.482-0v-26.294h66.391v-26.656zM648.861 468.175v25.955l-268.776 0c-0.951 0-1.991 0.226-2.851-0.070-0.769-0.293-1.99-1.129-1.99-1.719-0.136-8.008-0.091-16.042-0.091-24.166l273.709-0zM648.677 402.644h-273.346v-25.681h273.346v25.681zM375.332 285.974h273.346v25.638h-273.346l0-25.638z"  horiz-adv-x="1024" />

    
    <glyph glyph-name="shiliangzhinengduixiang1" unicode="&#58918;" d="M598.016-110.592c-340.992-56.32-633.344 235.52-577.024 577.024 34.304 206.848 200.704 373.248 407.552 407.552 340.992 56.32 633.344-235.52 577.024-577.024-34.304-206.848-200.704-373.76-407.552-407.552z m-8.192 936.448c-308.224 51.2-571.904-212.992-521.216-521.216 30.72-186.88 181.248-337.408 368.128-368.128 308.224-51.2 571.904 212.992 521.216 521.216-30.72 186.88-181.248 337.408-368.128 368.128zM869.888 419.84l-392.192-395.264c-13.824-13.824-35.328-13.824-49.152 0l-49.152 49.152-12.288 12.288-12.288 12.288c-7.168 7.168-7.68 17.408-2.56 26.112l2.56-1.536c-1.024 1.024-1.536 1.024-2.56 1.536 16.384 27.136 12.288 61.44-10.752 84.992-23.04 23.04-58.368 26.112-84.992 10.24-1.024 1.024 1.024-1.024 0 0-7.68-5.632-19.456-4.608-26.112 2.56l-12.288 12.288-12.288 12.288-49.152 49.152c-13.824 13.824-13.824 35.328 0 49.152l392.192 395.264c13.824 13.824 35.328 13.824 49.152 0l49.152-49.152 12.288-12.288 12.288-12.288c7.168-7.168 7.68-17.92 2.56-26.112 1.024-1.024-1.024 1.024 0 0-16.384-27.136-12.288-61.44 10.752-84.992 23.04-23.04 58.368-25.6 84.992-9.728 0 0.512 0 0 0.512 0.512 7.168 7.168 18.432 3.584 25.6-3.072l12.288-12.288 12.288-12.288 49.152-49.152c13.312-14.336 13.824-36.352 0-49.664z m-90.624 90.112c-38.4-18.432-86.528-12.288-118.784 19.968-32.256 32.256-39.424 79.872-20.992 118.784l-53.76 53.248c-6.656 6.656-17.92 6.656-24.576 0l-367.104-370.176c-6.656-6.656-6.656-17.92 0-24.576l53.76-53.248c38.4 18.432 86.528 12.288 118.784-19.968 32.256-32.256 39.424-79.872 20.992-118.784l53.76-53.248c6.656-6.656 17.92-6.656 24.576 0l367.616 370.688c6.656 6.656 6.656 17.92 0 24.576l-54.272 52.736z m-142.336-123.392l-50.176-50.176 35.84-35.84c3.584-3.584 3.584-10.752 0-14.336l-14.336-14.336c-3.584-3.584-10.752-3.584-14.336 0l-35.84 35.84-50.176-50.176c-3.584-3.584-10.752-3.584-14.336 0l-14.336 14.336c-3.584 3.584-3.584 10.752 0 14.336l50.176 50.176-28.672 28.672-50.176-50.176c-3.584-3.584-10.752-3.584-14.336 0l-14.336 14.336c-3.584 3.584-3.584 10.752 0 14.336l39.424 39.424-92.16 3.584c-5.12 0-9.216 3.072-9.728 8.704l-1.024 19.968c0 5.12 3.584 8.704 8.704 8.704l105.472-4.608-5.12 105.984c0 5.12 3.584 9.216 8.704 8.704l18.944-1.024c5.12 0 9.728-4.608 9.728-9.728l4.608-92.672 39.424 39.936c3.584 3.584 10.752 3.584 14.336 0l15.36-15.36c4.608-4.608 2.56-9.728-1.024-13.312l-50.176-50.176 28.672-28.672 50.176 50.176c3.584 3.584 10.24 4.096 13.824 0.512l14.848-14.848c5.12-3.584 5.632-8.192 2.048-12.288zM453.12 10.752c-10.24 0-19.968 4.096-27.136 11.264l-73.728 73.728c-7.168 7.168-9.216 18.432-4.096 28.16l0.512 1.024c0.512 0.512 0.512 1.024 1.024 1.536 15.36 25.6 11.264 58.88-10.24 80.384-20.992 20.992-54.784 25.088-79.872 9.728-8.704-6.656-22.528-5.632-30.72 2.56l-73.728 73.728c-15.36 15.36-15.36 39.424 0 54.272l392.192 395.264c14.848 14.848 39.936 14.848 54.272 0l73.728-73.728c8.192-8.192 9.216-20.48 3.072-30.72-15.36-25.6-11.264-58.88 10.24-80.384 20.48-20.48 53.248-24.576 78.336-10.24v1.536l2.56 0.512c4.096 3.584 9.216 5.12 15.36 4.096 5.12-1.024 10.752-3.584 14.848-7.68l73.728-73.728c14.848-15.872 14.848-40.448 0-54.784l-392.192-395.264c-8.192-7.168-17.92-11.264-28.16-11.264z m-61.952 104.96l52.224-51.2c5.632-5.632 14.336-5.12 19.456 0l367.616 370.688c2.56 2.56 4.096 6.144 4.096 9.728s-1.536 7.168-4.096 9.728l-52.224 51.2c-40.96-18.432-89.088-9.728-120.32 22.016-31.744 31.744-40.96 79.872-22.528 120.32l-52.224 51.2c-5.632 5.12-14.336 5.12-19.456 0l-367.104-370.176c-2.56-2.56-4.096-6.144-4.096-9.728s1.536-7.168 4.096-9.728l51.712-51.2c40.96 18.432 89.088 9.728 120.32-22.016 31.744-32.256 40.96-80.384 22.528-120.832z m110.08 135.68c-3.584 0-7.168 1.024-9.728 3.584l-14.336 14.336c-2.56 2.56-3.584 6.144-3.584 9.728 0 4.096 1.536 7.168 3.584 9.728l47.616 47.616-23.552 23.552-47.104-47.104c-5.12-5.12-14.336-5.12-19.456 0l-14.336 14.336c-2.56 2.56-3.584 5.632-3.584 9.728 0 3.584 1.536 7.168 3.584 9.728l33.28 33.28-83.456 3.072c-7.168 0-12.8 4.608-13.312 11.776l-1.024 19.968c0 7.68 5.12 12.8 12.8 12.8l101.376-4.096-5.12 101.888c0 4.096 1.024 7.168 3.584 9.216 2.048 2.048 5.12 3.584 8.704 3.584h0.512l18.944-1.024c7.168 0 13.312-6.144 13.312-13.312l4.096-83.968 33.28 34.304c5.12 5.12 14.336 5.12 19.456 0l15.36-15.36c5.12-5.12 5.12-12.8-1.024-18.432l-47.104-47.104 23.552-23.552 47.104 47.616c5.12 5.12 14.336 5.12 18.944 0.512l14.848-14.848c6.144-5.632 6.656-12.288 2.048-18.432l-0.512-0.512-47.104-47.104 33.28-33.28c2.56-2.56 3.584-6.144 3.584-9.728s-1.536-7.168-3.584-9.728l-14.336-14.336c-5.12-5.12-14.336-5.12-19.456 0l-33.28 33.28-47.104-47.104c-3.584-3.072-7.168-4.608-10.752-4.608z"  horiz-adv-x="1024" />

    
    <glyph glyph-name="gouwuche" unicode="&#58920;" d="M512-99.555556c267.064889 0 483.555556 216.490667 483.555556 483.555556S779.064889 867.555556 512 867.555556 28.444444 651.064889 28.444444 384s216.490667-483.555556 483.555556-483.555556z m0-28.444444C229.233778-128 0 101.233778 0 384S229.233778 896 512 896s512-229.233778 512-512-229.233778-512-512-512z m280.32 629.560889l-66.161778-187.761778a65.308444 65.308444 0 0 0-61.354666-43.690667H406.471111a65.422222 65.422222 0 0 0-63.857778 52.963556l-43.804444 223.630222-14.478222 67.072H235.832889a13.994667 13.994667 0 0 0-13.966222 14.051556c0 7.793778 6.257778 14.08 13.966222 14.08h59.733333c0.455111 0 0.824889-0.227556 1.223111-0.284445a13.112889 13.112889 0 0 0 5.205334-1.507555 13.368889 13.368889 0 0 0 2.218666-1.507556c0.711111-0.568889 1.308444-1.137778 1.905778-1.820444a14.136889 14.136889 0 0 0 1.422222-2.161778c0.483556-0.853333 0.853333-1.706667 1.137778-2.616889 0.142222-0.426667 0.455111-0.739556 0.540445-1.194667l14.506666-67.128888h425.102222c14.961778 0 29.070222-7.338667 37.688889-19.683556 8.675556-12.316444 10.808889-28.188444 5.802667-42.467556z m-28.586667 26.225778a17.948444 17.948444 0 0 1-14.904889 7.793777H329.443556l40.533333-207.075555c3.441778-17.493333 18.773333-30.236444 36.494222-30.236445h258.332445c15.701333 0 29.809778 10.040889 35.072 24.974223l66.161777 187.733333a18.318222 18.318222 0 0 1-2.304 16.782222zM396.344889 239.587556c31.032889 0 56.263111-25.457778 56.263111-56.746667s-25.230222-56.746667-56.263111-56.746667a56.576 56.576 0 0 0-56.263111 56.746667c0 31.288889 25.230222 56.746667 56.263111 56.746667z m0-85.333334c15.644444 0 28.359111 12.8 28.359111 28.586667 0 15.758222-12.714667 28.558222-28.359111 28.558222s-28.330667-12.8-28.330667-28.558222c0-15.786667 12.714667-28.615111 28.330667-28.615111z m248.661333 85.333334c31.004444 0 56.234667-25.457778 56.234667-56.746667s-25.230222-56.746667-56.234667-56.746667a56.547556 56.547556 0 0 0-56.234666 56.746667c0 31.288889 25.230222 56.746667 56.234666 56.746667z m0-85.333334c15.644444 0 28.359111 12.8 28.359111 28.586667 0 15.758222-12.743111 28.558222-28.359111 28.558222-15.644444 0-28.359111-12.8-28.359111-28.558222 0-15.786667 12.714667-28.615111 28.359111-28.615111z"  horiz-adv-x="1024" />

    
    <glyph glyph-name="gouwudai" unicode="&#58901;" d="M283.8 456.664c-24.9 0-45.1 20.2-45.1 45.2 0 24.9 20.2 45.1 45.1 45.1 25 0 45.2-20.2 45.2-45.1 0-25-20.2-45.2-45.2-45.2v0zM735.4 456.664c-25 0-45.2 20.2-45.2 45.2 0 24.9 20.2 45.1 45.2 45.1 24.9 0 45.1-20.2 45.1-45.1 0.1-25-20.2-45.2-45.1-45.2v0zM825.8-107.836h-632.3c-49.7 0-90.2 40.5-90.2 90.3v632.2c0 49.8 40.5 90.4 90.2 90.4h632.3c49.8 0 90.3-40.5 90.3-90.4v-632.2c-0.1-49.7-40.5-90.3-90.3-90.3v0zM870.8 614.664c0 24.9-20.3 45.1-45.1 45.1h-632.3c-24.8 0-45.1-20.2-45.1-45.1v-632.2c0-24.8 20.3-45.1 45.1-45.1h632.3c24.8 0 45.1 20.3 45.1 45.1v632.2zM509.6 253.464c-136.9 0-248.3 111.4-248.3 248.4 0 12.5 10.1 22.6 22.5 22.6 12.5 0 22.6-10.1 22.6-22.6 0-112.1 91.2-203.2 203.2-203.2 112.1 0 203.2 91.1 203.2 203.2 0 12.5 10.1 22.6 22.6 22.6 12.4 0 22.5-10.1 22.5-22.6 0.1-137-111.4-248.4-248.3-248.4v0z"  horiz-adv-x="1024" />

    
    <glyph glyph-name="suo" unicode="&#58885;" d="M508.228 368.53c-11.493 0-20.81-7.717-20.81-17.235v-131.531c0-9.518 9.316-17.234 20.81-17.234 11.493 0 20.81 7.717 20.81 17.234V351.295c0 9.518-9.317 17.235-20.81 17.235zM770.869 544.846h-45.145v69.977c0 58.915-21.807 113.723-61.403 154.328-40.361 41.389-95.796 64.184-156.093 64.184S392.496 810.54 352.135 769.15c-39.596-40.605-61.402-95.412-61.402-154.328v-69.978H253.13c-41.977 0-76.128-31.46-76.128-70.131v-378.372c0-38.67 34.151-70.13 76.128-70.13H770.87c41.977 0 76.128 31.46 76.128 70.13V474.714c0 38.67-34.151 70.132-76.128 70.132z m-439.204 69.977c0 101.237 75.906 177.579 176.563 177.579s176.563-76.343 176.563-177.579v-69.978H331.665v69.978z m474.4-518.48c0-16.1-15.79-29.197-35.196-29.197H253.13c-19.407 0-35.195 13.098-35.195 29.198v378.37c0 16.1 15.788 29.2 35.195 29.2H770.87c19.407 0 35.195-13.1 35.195-29.2v-378.37z"  horiz-adv-x="1024" />

    
    <glyph glyph-name="xiaoxi" unicode="&#58627;" d="M696.203 85.044c-3.123 0.018-6.087-0.496-8.684-1.561h-0.085c-2.077-0.859-4.060-2.245-5.779-4.133l-127.562-140.087c-1.41-1.542-2.898-3.038-4.393-4.375-11.837-10.583-27.236-15.951-42.466-15.969-15.303-0.018-30.721 5.301-42.575 16.073l-0.17 0.176c-1.204 1.113-2.578 2.516-4.15 4.272l-123.447 137.819c-1.458 1.628-3.328 2.832-5.423 3.618-3.019 1.149-6.486 1.748-10.069 1.906h-0.085c-33.481 1.609-57.479 1.712-83.161 1.797h-0.085c-32.827 0.121-68.437 0.278-125.899 3.244v-0.036c-31.302 0-59.828 12.883-80.497 33.535l-0.054-0.049c-20.646 20.652-33.481 49.175-33.481 80.545v507.495c0 31.283 12.847 59.808 33.481 80.462l0.054 0.036 0.036 0.049c20.652 20.634 49.175 33.481 80.462 33.481h795.779c31.369 0 59.893-12.829 80.545-33.481l-0.049-0.049c20.646-20.671 33.53-49.196 33.53-80.497v-507.495c0-31.369-12.829-59.893-33.481-80.545s-49.175-33.486-80.545-33.486v0.071c-50.932-0.999-94.651-1.7-129.281-2.16-42.433-0.569-70.958-0.756-82.467-0.654v0zM771.466 480.462c-24.065 0-43.568-19.503-43.568-43.568s19.502-43.568 43.568-43.568 43.568 19.503 43.568 43.568-19.502 43.568-43.568 43.568v0zM510.060 480.462c-24.065 0-43.568-19.503-43.568-43.568s19.503-43.568 43.568-43.568 43.568 19.503 43.568 43.568-19.503 43.568-43.568 43.568v0zM248.656 480.462c-24.065 0-43.568-19.503-43.568-43.568s19.503-43.568 43.568-43.568 43.568 19.503 43.568 43.568-19.503 43.568-43.568 43.568v0zM670.867 123.619l-0.018 0.036c7.946 3.292 16.671 4.852 25.698 4.781 11.212-0.085 39.417 0.102 81.611 0.653 34.098 0.448 77.721 1.167 129.366 2.179l0.43 0.085c19.344 0 36.96 7.946 49.74 20.724 12.78 12.773 20.719 30.394 20.719 49.74v507.497c0 19.399-7.908 37.033-20.634 49.74h-0.085c-12.78 12.78-30.394 20.719-49.74 20.719h-795.778c-19.399 0-37.033-7.903-49.746-20.634l-0.085-0.085c-12.726-12.707-20.634-30.34-20.634-49.74v-507.495c0-19.344 7.946-36.966 20.719-49.74v-0.091c12.713-12.726 30.346-20.634 49.746-20.634l1.095-0.085c58.338-3.038 92.986-3.189 124.889-3.292h0.091c26.758-0.102 51.778-0.206 85.126-1.804 8.162-0.394 16.175-1.779 23.569-4.61 8.35-3.189 15.998-8.133 22.467-15.388l-0.049-0.036 123.327-137.782 1.234-1.187c3.564-3.244 8.435-4.852 13.312-4.852 4.956 0 9.911 1.683 13.549 4.918l1.269 1.252-0.054 0.036 127.477 140.087c6.105 6.686 13.33 11.659 21.389 15.005z"  horiz-adv-x="1024" />

    
    <glyph glyph-name="QQ" unicode="&#58886;" d="M914.760987 301.425509c-13.486329 32.896281-30.712747 62.62214-48.990242 86.798041 14.881269 11.522868 25.147889 35.809952 25.147889 63.912775 0 38.8967-19.607101 70.437013-43.911378 71.072014a327.332898 327.332898 0 0 1 3.209393 45.64445C850.217796 749.54163 702.652185 896 520.585597 896 338.575173 896 190.979761 749.543923 190.979761 568.852789c0-17.373134 1.378893-34.424182 4.008303-51.064886-16.16388-10.705619-27.518255-36.050656-27.518255-65.652724 0-17.156499 3.826055-32.89055 10.196701-45.168772-21.132709-22.814201-41.727844-52.067821-58.596644-85.68507-46.753983-93.175564-39.773552-187.339163-10.992172-202.673185 14.766648-7.851551 53.274782 16.847022 91.091751 62.692059 6.132234-53.933854 31.650349-103.163654 70.70408-142.784761-64.710538-19.122253-107.600641-56.886496-101.86385-95.235307 7.186749-48.460692 89.101927-79.489794 183.054623-69.365304 68.763543 7.450377 124.85113 34.909029 147.203407 68.088424 5.773469-0.26019 11.583617-0.401174 17.433883-0.401174 10.04884 0 19.98535 0.408051 29.79807 1.166844 23.875594-31.601062 76.746909-57.844729 140.498069-65.980541 91.11009-11.589348 169.968322 18.180067 176.077631 66.491751 4.859938 38.077159-36.822057 76.337712-99.269973 96.517918 36.655856 37.649622 61.166451 83.831645 68.568687 134.416268 33.578277-45.914956 67.911908-75.243079 85.870756-71.30011 21.207212 4.673106 36.392227 103.689766-2.483841 198.51129z"  horiz-adv-x="1024" />

    
    <glyph glyph-name="yuyin" unicode="&#58938;" d="M512 887.42912C233.9584 887.42912 8.56576 662.0416 8.56576 384S233.9584-119.42912 512-119.42912c278.04672 0 503.43424 225.38752 503.43424 503.42912S790.03648 887.42912 512 887.42912z m0-969.5744c-257.44384 0-466.14528 208.70144-466.14528 466.14528C45.85472 641.43872 254.55616 850.14528 512 850.14528c257.43872 0 466.14016-208.70656 466.14016-466.14528 0-257.44384-208.70144-466.14528-466.14016-466.14528zM287.79008 379.20768c0 14.3104 4.77184 28.6208 14.3104 42.93632 9.54368 9.53856 23.85408 14.3104 38.15936 14.3104 14.3104 0 28.6208-4.77184 42.93632-14.3104 9.54368-14.3104 14.30528-28.6208 14.30528-42.93632 0-14.3104-4.77184-33.38752-14.30528-42.93632-14.31552-9.53856-28.6208-14.30528-42.93632-14.30528-14.3104 0-28.62592 4.77184-38.15936 14.30528-9.54368 9.5488-14.3104 28.63104-14.3104 42.93632z m448.42496-9.53344v33.38752c-4.77696 109.72672-57.25184 214.67648-133.57056 281.46688h-23.84896c-19.08736 0-38.16448-14.3104-38.16448-38.15936 0-14.3104 28.62592-33.39264 38.16448-38.15936 52.48-57.25184 85.86752-133.56544 85.86752-214.67648 0-95.4112-38.16448-176.50176-100.18816-233.74336-14.30528-4.78208-23.8592-19.08736-23.8592-38.15936 0-19.08736 19.08736-38.15936 38.16448-38.15936 14.30528 0 23.8592 4.76672 23.8592 4.76672 76.32896 66.79552 128.7936 166.97344 133.56032 281.472l0.01536-0.03584z m-262.36928 190.8224s-9.5488 9.54368-23.8592 9.54368-28.6208-14.31552-28.6208-33.39776c0-19.07712 14.3104-28.6208 19.08224-33.38752 38.15936-23.85408 66.7904-71.56736 66.7904-124.03712 0-52.48-28.6208-100.18304-66.7904-124.032-4.77184-4.77184-19.08224-9.53856-19.08224-33.38752 0-19.08736 14.3104-33.39264 28.6208-33.39264s23.8592 9.53856 23.8592 9.53856c57.24672 38.15936 90.64448 104.94976 90.64448 181.2736 0 76.33408-33.39776 143.11936-90.64448 181.27872z"  horiz-adv-x="1024" />

    
    <glyph glyph-name="xin" unicode="&#58941;" d="M714.752 789.504c-78.848 0-153.088-35.328-202.752-92.672-49.664 57.344-123.904 92.672-202.752 92.672C169.472 789.504 61.44 683.52 61.44 546.304c0-167.936 153.088-302.592 385.024-510.464l65.536-57.344 65.536 57.344c231.936 207.872 385.024 342.528 385.024 510.464 0 137.216-108.032 243.2-247.808 243.2z"  horiz-adv-x="1024" />

    
    <glyph glyph-name="xiala" unicode="&#58916;" d="M512.932 330.155c-10.838 0-21.586 4.823-28.776 14.041-12.368 15.892-9.521 38.777 6.353 51.163l318.902 248.448c15.856 12.368 38.759 9.521 51.163-6.353 12.368-15.892 9.521-38.777-6.353-51.163L535.32 337.843a36.36 36.36 0 0 0-22.388-7.688zM512.932 116.498c-10.838 0-21.586 4.823-28.776 14.041-12.368 15.892-9.521 38.777 6.353 51.163L809.411 430.15c15.856 12.35 38.759 9.539 51.163-6.353 12.368-15.892 9.521-38.777-6.353-51.163L535.32 124.186a36.354 36.354 0 0 0-22.388-7.688zM511.068 330.155a36.351 36.351 0 0 0-22.387 7.688L169.778 586.292c-15.874 12.386-18.721 35.271-6.353 51.163 12.386 15.856 35.307 18.703 51.163 6.353L533.49 395.36c15.874-12.386 18.721-35.271 6.353-51.163-7.189-9.219-17.938-14.042-28.775-14.042zM511.068 116.498a36.351 36.351 0 0 0-22.387 7.688L169.778 372.634c-15.874 12.386-18.721 35.271-6.353 51.163 12.386 15.874 35.307 18.686 51.163 6.353L533.49 181.702c15.874-12.386 18.721-35.271 6.353-51.163-7.189-9.218-17.938-14.041-28.775-14.041z"  horiz-adv-x="1024" />

    
    <glyph glyph-name="caizhuang" unicode="&#58903;" d="M1014.173193-128H730.776702c-25.222737 0-45.756632 19.959018-45.756632 44.373333V439.098386c0 24.486175 20.533895 44.319439 45.756632 44.319439h22.150737V714.141193c1.616842 25.330526 18.46793 73.386667 71.53628 105.831298 17.803228 10.994526 34.600421 24.001123 49.601123 35.642386C904.371649 879.023158 926.288842 896 950.667228 896c18.647579 0 49.726877-9.054316 49.726877-69.721825v-342.86035h13.779088c25.222737 0 45.756632-19.833263 45.756632-44.319439V-83.626667c0-24.522105-20.533895-44.373333-45.756632-44.373333z m-60.254316 456.308772c0 17.623579-14.731228 31.977544-33.091368 31.977544-18.306246 0-33.145263-14.246175-33.145263-31.977544v-289.486597c0-17.623579 14.839018-31.977544 33.145263-31.977543 18.234386 0 33.091368 14.30007 33.091368 31.977543V328.308772z m-495.220772 96.938667c-0.503018-0.754526-1.509053-1.024-2.173754-1.670737 13.114386-108.813474 54.846877-459.003509 54.846877-488.052772 0-43.672702-42.576842-63.52393-82.081684-63.52393h-148.533895c-37.546667 0-64.278456 9.323789-79.566596 27.935439-12.503579 15.144421-14.120421 32.821895-11.264 44.319438l54.846877 476.950456c-1.509053 1.185684-3.287579 1.886316-4.634948 3.395369L7.904561 688.684912A31.258947 31.258947 0 0 0 5.389474 726.96814C10.078316 733.812772 122.017684 896 341.297404 896c218.740772 0 335.297123-159.81586 340.255438-166.552702 8.26386-11.641263 7.653053-27.216842-1.544982-38.283228L458.698105 425.247439z m-54.846877-119.592421l-7.635088 64.008982h-90.956351l-7.311719-64.008982h105.903158z m-91.17193 307.110175c-4.293614 17.210386-22.258526 27.665965-39.953965 23.569965-17.803228-4.203789-28.672-21.46807-24.43228-38.714386l29.354666-117.005474 68.230737-0.592842-33.199158 132.742737z m100.154386 23.947228c-18.018807 3.287579-35.211228-8.353684-38.606596-25.725754l-24.71972-130.964211h67.350457l22.653754 119.430737c3.233684 17.425965-8.659088 34.079439-26.677895 37.259228z"  horiz-adv-x="1059" />

    
    <glyph glyph-name="gengduo" unicode="&#58887;" d="M512-128C229.230882-128 0 101.230882 0 384S229.230882 896 512 896 1024 666.769118 1024 384 794.769118-128 512-128z m0 983.037956C251.852902 855.035912 40.96 644.147098 40.96 384S251.852902-87.037956 512-87.037956 983.04 123.852902 983.04 384 772.149142 855.035912 512 855.035912z m20.48-737.277956h-40.96V363.517956H245.757956v40.964088H491.52v245.76h40.96v-245.76h245.76v-40.964088H532.48v-245.76z"  horiz-adv-x="1026" />

    
    <glyph glyph-name="ZHicon-" unicode="&#58942;" d="M102.4 691.2c28.16 0 51.2-23.04 51.2-51.2s-23.04-51.2-51.2-51.2-51.2 23.04-51.2 51.2 23.04 51.2 51.2 51.2zM102.4 435.2c28.16 0 51.2-23.04 51.2-51.2s-23.04-51.2-51.2-51.2-51.2 23.04-51.2 51.2 23.04 51.2 51.2 51.2zM102.4 179.2c28.16 0 51.2-23.04 51.2-51.2s-23.04-51.2-51.2-51.2-51.2 23.04-51.2 51.2 23.04 51.2 51.2 51.2zM281.6 665.6h665.6c15.36 0 25.6-10.24 25.6-25.6s-10.24-25.6-25.6-25.6H281.6c-15.36 0-25.6 10.24-25.6 25.6s10.24 25.6 25.6 25.6zM281.6 409.6h665.6c15.36 0 25.6-10.24 25.6-25.6s-10.24-25.6-25.6-25.6H281.6c-15.36 0-25.6 10.24-25.6 25.6s10.24 25.6 25.6 25.6zM281.6 153.6h665.6c15.36 0 25.6-10.24 25.6-25.6s-10.24-25.6-25.6-25.6H281.6c-15.36 0-25.6 10.24-25.6 25.6s10.24 25.6 25.6 25.6z"  horiz-adv-x="1024" />

    
    <glyph glyph-name="fanhui" unicode="&#58934;" d="M719.7 832.6c-14.5 0-29-5.2-40.1-15.7L263.5 422.7c-22.2-21-22.2-55 0-76l416.1-394.2c22.1-21 58-21 80.2 0 22.2 20.9 22.2 55 0 76L383.9 384.6l375.9 356.2c22.2 21 22.2 55 0 76-11.1 10.5-25.6 15.8-40.1 15.8m0 0"  horiz-adv-x="1024" />

    
    <glyph glyph-name="shouji" unicode="&#58892;" d="M723.771-121.814h-551.529c-36.098 0-65.182 29.58-65.182 65.678v891.479c0 36.098 29.081 65.678 65.182 65.678h551.529c36.098 0 65.182-29.58 65.182-65.678v-891.479c0-36.098-29.081-65.678-65.182-65.678zM172.238 880.969c-25.070 0-45.125-20.555-45.125-45.621v-891.479c0-25.070 20.055-45.621 45.125-45.621h551.529c25.070 0 45.125 20.555 45.125 45.621v891.479c0 25.070-20.055 45.621-45.125 45.621h-551.529zM701.211 78.234h-506.407v734.041h506.407v-734.041zM204.829 88.267h486.355v713.981h-486.355v-713.981zM448.011-61.153c-25.575 0-46.628 21.058-46.628 46.628s20.555 46.628 46.628 46.628 46.628-21.058 46.628-46.628c0-25.575-21.058-46.628-46.628-46.628zM448.011 22.59c-20.055 0-36.605-16.544-36.605-36.605s16.544-36.605 36.605-36.605 36.605 16.544 36.605 36.605-16.544 36.605-36.605 36.605z"  horiz-adv-x="1024" />

    
    <glyph glyph-name="dizhi" unicode="&#58902;" d="M512.6 295.2c-101.5 0-184.1 82.6-184.1 184.1s82.6 184.1 184.1 184.1 184.1-82.6 184.1-184.1c0-101.6-82.6-184.1-184.1-184.1z m0 315.6c-72.5 0-131.6-59-131.6-131.6s59-131.5 131.6-131.5 131.5 59 131.5 131.5-58.9 131.6-131.5 131.6zM512.6-62.6c-27.1 0-52.3 12.2-69.1 33.6l-18.1 22.8C324.5 121.1 155.7 334.1 155.7 473.3c0 196.8 160.1 357 357 357s357-160.1 357-357c0-139.2-168.9-352.2-269.8-479.5l-18-22.8c-17-21.3-42.1-33.6-69.3-33.6z m0 840.3c-167.9 0-304.5-136.6-304.5-304.5 0-120.8 168.1-332.9 258.4-446.8l18.2-22.9c13.6-17.2 42.2-17.2 55.8 0l18.1 22.9c90.3 113.9 258.5 326 258.5 446.9 0 167.8-136.6 304.4-304.5 304.4z"  horiz-adv-x="1024" />

    
    <glyph glyph-name="gengduo1" unicode="&#58889;" d="M282.692-106.53c-4.369 0-8.738 1.672-12.083 4.983-6.656 6.656-6.656 17.477 0 24.133l446.532 446.532L270.643 815.65c-6.656 6.656-6.656 17.476 0 24.132s17.476 6.656 24.132 0l458.616-458.58c3.208-3.21 4.983-7.544 4.983-12.084s-1.809-8.875-4.983-12.083L294.775-101.547a17.142 17.142 0 0 0-12.083-4.983z"  horiz-adv-x="1024" />

    
    <glyph glyph-name="fuzhuang" unicode="&#58967;" d="M194.56 865.28h173.056c3.072 0 6.656-2.048 7.68-5.632 6.656-19.456 25.088-93.184 129.024-93.184 81.92 0 116.224 72.704 123.904 93.184 1.024 2.56 3.584 4.608 7.168 4.608h184.832c6.144 0 9.728-6.144 7.168-10.752l-166.912-302.08c-0.512-1.024-1.024-2.048-1.024-3.584v-84.48c0-2.56 1.536-5.632 4.096-6.656 32.256-16.896 250.88-138.24 340.48-440.32 0.512-2.048 0.512-4.096-0.512-6.144-10.24-16.896-68.608-99.328-227.84-50.688 0 0-47.616 17.92-112.128-28.672-69.12-49.664-254.464-62.464-346.112 26.112-0.512 0.512-1.024 0.512-1.536 1.024-8.704 4.608-84.992 46.08-139.264 4.096-51.2-39.424-125.952 28.16-141.824 43.52-2.048 2.048-2.56 4.608-2.048 7.168 8.192 35.328 82.944 284.16 296.448 440.32 1.536 1.536 3.072 3.072 3.072 6.144l-0.512 86.016c0 1.024 0 2.048-0.512 3.072l-143.872 307.2c-2.56 4.096 1.536 9.728 7.168 9.728z"  horiz-adv-x="1024" />

    


  </font>
</defs>
</svg>
